<?xml version="1.0" standalone="no"?>
<!DOCTYPE svg PUBLIC "-//W3C//DTD SVG 1.1//EN" "http://www.w3.org/Graphics/SVG/1.1/DTD/svg11.dtd" >
<svg xmlns="http://www.w3.org/2000/svg">
<metadata>Generated by IcoMoon</metadata>
<defs>
<font id="icomoon" horiz-adv-x="1024">
<font-face units-per-em="1024" ascent="960" descent="-64" />
<missing-glyph horiz-adv-x="1024" />
<glyph unicode="&#x20;" horiz-adv-x="512" d="" />
<glyph unicode="&#xe900;" glyph-name="favorite" d="M512.001-7.515c-14.578 0-28.633 5.279-39.586 14.873-41.368 36.173-81.25 70.165-116.438 100.148l-0.18 0.158c-103.164 87.91-192.251 163.835-254.235 238.623-69.289 83.61-101.562 162.884-101.562 249.486 0 84.14 28.851 161.766 81.234 218.586 53.008 57.492 125.742 89.156 204.828 89.156 59.109 0 113.243-18.688 160.89-55.539 24.047-18.601 45.844-41.367 65.047-67.922 19.211 26.555 41.001 49.32 65.055 67.922 47.647 36.851 101.78 55.539 160.891 55.539 79.079 0 151.818-31.664 204.826-89.156 52.383-56.821 81.229-134.446 81.229-218.586 0-86.602-32.266-165.876-101.555-249.476-61.983-74.798-151.061-150.712-254.208-238.618-35.251-30.034-75.198-64.076-116.659-100.337-10.947-9.58-25.007-14.858-39.578-14.858zM286.063 843.531c-62.132 0-119.211-24.797-160.735-69.828-42.14-45.711-65.351-108.898-65.351-177.93 0-72.836 27.070-137.976 87.765-211.213 58.664-70.79 145.922-145.147 246.953-231.25l0.187-0.154c35.321-30.101 75.36-64.225 117.032-100.664 41.921 36.506 82.022 70.687 117.416 100.839 101.022 86.098 188.273 160.44 246.938 231.23 60.687 73.237 87.757 138.377 87.757 211.213 0 69.032-23.214 132.219-65.352 177.93-41.518 45.032-98.601 69.828-160.728 69.828-45.517 0-87.306-14.468-124.201-43-32.886-25.438-55.793-57.594-69.223-80.094-6.907-11.57-19.062-18.476-32.522-18.476s-25.618 6.906-32.523 18.476c-13.422 22.5-36.329 54.656-69.219 80.094-36.898 28.531-78.688 43-124.196 43z" />
<glyph unicode="&#xe901;" glyph-name="cart" d="M954.974-30.344l-77.827 741.149c-1.635 15.516-14.711 27.298-30.316 27.298h-146.277v33.351c0 103.961-84.591 188.547-188.549 188.547-103.969 0-188.555-84.586-188.555-188.547v-33.351h-146.281c-15.601 0-28.681-11.781-30.313-27.298l-77.829-741.149c-0.899-8.586 1.89-17.155 7.664-23.577 5.782-6.416 14.016-10.079 22.648-10.079h825.313c8.637 0 16.876 3.663 22.647 10.079 5.789 6.421 8.569 14.99 7.675 23.577zM384.402 771.453c0 70.351 57.243 127.594 127.601 127.594 70.351 0 127.592-57.243 127.592-127.594v-33.351h-255.193v33.351zM133.184-3.047l71.43 680.195h118.835v-67.164c0-16.828 13.648-30.477 30.477-30.477s30.477 13.648 30.477 30.477v67.164h255.193v-67.164c0-16.828 13.651-30.477 30.476-30.477 16.831 0 30.482 13.648 30.482 30.477v67.164h118.832l71.43-680.195h-757.632z" />
<glyph unicode="&#xe902;" glyph-name="arrow-left" d="M266.563 480.446l439.141 467.024c6.145 7.664 15.509 12.53 26.008 12.53s19.862-4.865 25.957-12.465l0.051-0.065c6.772-8.171 10.881-18.762 10.881-30.314s-4.109-22.143-10.945-30.393l0.064 0.079-412.706-438.885 412.706-438.885c6.766-8.158 10.871-18.735 10.871-30.271s-4.105-22.113-10.935-30.35l0.064 0.079c-6.145-7.664-15.509-12.53-26.008-12.53s-19.862 4.865-25.957 12.465l-0.051 0.065-439.141 467.024c-6.932 7.879-11.163 18.282-11.163 29.674 0 0.93 0.028 1.854 0.084 2.769l-0.006-0.126c-0.010 0.367-0.015 0.798-0.015 1.231 0 11.919 4.188 22.86 11.172 31.433l-0.072-0.091z" />
<glyph unicode="&#xe903;" glyph-name="arrow-up" d="M479.58 694.065l-467.406-439.263c-7.478-6.424-12.174-15.876-12.174-26.448s4.696-20.016 12.127-26.404l0.049-0.045c8.3-6.393 18.84-10.238 30.281-10.238s21.981 3.855 30.392 10.332l-0.111-0.079 439.263 413.671 439.263-413.671c8.3-6.393 18.84-10.238 30.281-10.238s21.981 3.855 30.392 10.332l-0.111-0.079c7.478 6.424 12.174 15.876 12.174 26.448s-4.696 20.016-12.127 26.404l-0.049 0.045-467.406 439.263c-9.026 6.393-20.265 10.238-32.411 10.238s-23.374-3.828-32.591-10.346l0.177 0.111z" />
<glyph unicode="&#xe904;" glyph-name="arrow-down" d="M1011.435 693.351c-8.211 6.685-18.805 10.741-30.333 10.741s-22.127-4.049-30.429-10.805l0.079 0.075-438.744-412.285-438.914 412.285c-8.179 6.688-18.744 10.741-30.243 10.741s-22.072-4.049-30.333-10.805l0.079 0.072c-7.7-6.151-12.598-15.543-12.598-26.074s4.884-19.923 12.534-26.010l0.069-0.047 466.894-438.819c8.88-7.675 20.825-10.927 32.417-10.415 0.913-0.066 1.992-0.108 3.063-0.108 11.188 0 21.434 3.968 29.437 10.581l-0.079-0.061 467.068 438.819c7.7 6.151 12.598 15.543 12.598 26.074s-4.884 19.923-12.534 26.010l-0.069 0.047z" />
<glyph unicode="&#xe905;" glyph-name="arrow-right" d="M239.325-51.487c-7.372 7.921-11.916 18.558-11.916 30.265s4.541 22.35 11.952 30.286l-0.009-0.009 458.178 438.842-458.178 438.959c-7.421 7.925-11.971 18.576-11.971 30.333s4.553 22.403 12.017 30.341l-0.009-0.009c7.284 7.692 17.549 12.481 28.941 12.481s21.691-4.792 28.937-12.475l0.009-0.009 487.542-467.061c7.305-7.692 11.793-18.168 11.793-29.643 0-0.97-0.017-1.932-0.077-2.893l0.007 0.125c0.059-0.847 0.077-1.859 0.077-2.872 0-11.467-4.491-21.888-11.833-29.576l0.009 0.009-487.542-467.061c-7.279-7.735-17.545-12.543-28.941-12.543s-21.691 4.811-28.937 12.496l-0.009 0.009z" />
<glyph unicode="&#xe906;" glyph-name="dram" d="M423.6 353.238h189.525v86.276h-189.525v121.636h189.525v39.602c0 131.065-65.533 196.596-196.596 196.596-67.89 0-117.393-19.801-148.508-59.403-31.116-38.659-46.674-101.834-46.674-189.525h-199.425c0 125.406 33.002 225.355 99.005 299.846s165.952 111.734 299.846 111.734c127.293 0 224.413-33.945 291.36-101.834 66.949-67.89 100.42-158.409 100.42-271.558v-25.459h189.525v-121.636h-189.525v-86.276h189.525v-123.050h-189.525v-294.188h-199.425v294.188h-189.525v123.050z" />
<glyph unicode="&#xe907;" glyph-name="fb" d="M594.555-57.336c-4.266-0.695-8.547-1.336-12.844-1.922 4.297 0.586 8.578 1.227 12.844 1.922zM604.797-55.586c-2.039-0.375-4.078-0.719-6.117-1.070 2.039 0.352 4.078 0.695 6.117 1.070zM570.273-60.68c-4.992-0.563-10.016-1.063-15.055-1.484 5.039 0.422 10.063 0.922 15.055 1.484zM580.109-59.477c-2.398-0.32-4.813-0.617-7.219-0.898 2.406 0.281 4.82 0.578 7.219 0.898zM618.734-52.82c-1.797-0.383-3.602-0.766-5.406-1.133 1.805 0.367 3.609 0.75 5.406 1.133zM653.328-44.227c-1.453-0.414-2.906-0.805-4.359-1.211 1.453 0.406 2.906 0.797 4.359 1.211zM642.867-47.086c-1.578-0.414-3.164-0.836-4.75-1.234 1.586 0.398 3.172 0.813 4.75 1.234zM629.18-50.508c-1.672-0.391-3.359-0.758-5.047-1.133 1.688 0.375 3.375 0.742 5.047 1.133zM555.055-62.18c-2.695-0.227-5.391-0.43-8.094-0.609 2.703 0.18 5.398 0.383 8.094 0.609zM1024 448c0 282.727-229.273 512-512 512s-512-229.273-512-512 229.273-512 512-512c3.008 0 6 0.063 9 0.117v398.57h-110v128.195h110v94.336c0 109.406 66.789 168.953 164.383 168.953 46.734 0 86.906-3.484 98.617-5.039v-114.344h-67.297c-53.094 0-63.375-25.234-63.375-62.258v-81.648h126.953l-16.547-128.195h-110.406v-378.906c214.008 61.352 370.672 258.516 370.672 492.219zM545.828-62.859c-5.328-0.344-10.68-0.617-16.047-0.797 5.367 0.18 10.719 0.453 16.047 0.797zM529.508-63.672c-2.828-0.094-5.664-0.164-8.5-0.211 2.836 0.047 5.672 0.117 8.5 0.211z" />
<glyph unicode="&#xe908;" glyph-name="nav" d="M0 220.445h1024v-113.779h-1024v113.779zM0 504.888h1024v-113.779h-1024v113.779zM0 789.333h1024v-113.779h-1024v113.779z" />
<glyph unicode="&#xe909;" glyph-name="insta" d="M610 448c0-54.125-43.875-98-98-98s-98 43.875-98 98 43.875 98 98 98 98-43.875 98-98zM741.188 621.391c-4.711 12.766-12.227 24.32-21.992 33.805-9.484 9.766-21.031 17.281-33.805 21.992-10.359 4.023-25.922 8.813-54.586 10.117-31.008 1.414-40.305 1.719-118.805 1.719-78.508 0-87.805-0.297-118.805-1.711-28.664-1.313-44.234-6.102-54.586-10.125-12.773-4.711-24.328-12.227-33.805-21.992-9.766-9.484-17.281-21.031-22-33.805-4.023-10.359-8.813-25.93-10.117-54.594-1.414-31-1.719-40.297-1.719-118.805 0-78.5 0.305-87.797 1.719-118.805 1.305-28.664 6.094-44.227 10.117-54.586 4.719-12.773 12.227-24.32 21.992-33.805 9.484-9.766 21.031-17.281 33.805-21.992 10.359-4.031 25.93-8.82 54.594-10.125 31-1.414 40.289-1.711 118.797-1.711 78.516 0 87.812 0.297 118.805 1.711 28.664 1.305 44.234 6.094 54.594 10.125 25.641 9.891 45.906 30.156 55.797 55.797 4.023 10.359 8.813 25.922 10.125 54.586 1.414 31.008 1.711 40.305 1.711 118.805 0 78.508-0.297 87.805-1.711 118.805-1.305 28.664-6.094 44.234-10.125 54.594zM512 297.031c-83.383 0-150.977 67.586-150.977 150.969s67.594 150.969 150.977 150.969c83.375 0 150.969-67.586 150.969-150.969s-67.594-150.969-150.969-150.969zM668.938 569.656c-19.484 0-35.281 15.797-35.281 35.281s15.797 35.281 35.281 35.281 35.281-15.797 35.281-35.281c-0.008-19.484-15.797-35.281-35.281-35.281zM512 960c-282.727 0-512-229.273-512-512s229.273-512 512-512 512 229.273 512 512-229.273 512-512 512zM804.227 326.789c-1.422-31.297-6.398-52.664-13.664-71.367-15.273-39.492-46.492-70.711-85.984-85.984-18.695-7.266-40.070-12.234-71.359-13.664-31.352-1.43-41.367-1.773-121.211-1.773-79.852 0-89.859 0.344-121.219 1.773-31.289 1.43-52.664 6.398-71.359 13.664-19.625 7.383-37.391 18.953-52.078 33.914-14.953 14.68-26.523 32.453-33.906 52.070-7.266 18.695-12.242 40.070-13.664 71.359-1.445 31.359-1.781 41.375-1.781 121.219s0.336 89.859 1.773 121.211c1.422 31.297 6.391 52.664 13.656 71.367 7.383 19.617 18.961 37.391 33.922 52.070 14.68 14.961 32.453 26.531 52.070 33.914 18.703 7.266 40.070 12.234 71.367 13.664 31.352 1.43 41.367 1.773 121.211 1.773s89.859-0.344 121.211-1.781c31.297-1.422 52.664-6.391 71.367-13.648 19.617-7.383 37.391-18.961 52.078-33.922 14.953-14.688 26.531-32.453 33.906-52.070 7.273-18.703 12.242-40.070 13.672-71.367 1.43-31.352 1.766-41.367 1.766-121.211s-0.336-89.859-1.773-121.211z" />
<glyph unicode="&#xe90a;" glyph-name="close" d="M1024 857.651l-102.349 102.349-409.703-409.599-409.599 409.599-102.349-102.349 409.599-409.703-409.599-409.599 102.349-102.349 409.599 409.599 409.703-409.599 102.349 102.349-409.599 409.599 409.599 409.703z" />
<glyph unicode="&#xe90b;" glyph-name="vk" d="M512 960c-282.76 0-512-229.229-512-512s229.24-512 512-512 512 229.229 512 512-229.24 512-512 512zM771.714 392.625c23.864-23.308 49.11-45.245 70.533-70.962 9.491-11.377 18.437-23.141 25.246-36.372 9.721-18.867 0.943-39.556-15.944-40.677l-104.893 0.021c-27.090-2.242-48.649 8.684-66.825 27.205-14.509 14.76-27.97 30.526-41.945 45.789-5.709 6.264-11.722 12.162-18.888 16.803-14.299 9.302-26.724 6.453-34.916-8.485-8.349-15.2-10.256-32.045-11.052-48.963-1.142-24.733-8.601-31.197-33.417-32.359-53.028-2.483-103.343 5.563-150.106 32.297-41.253 23.581-73.183 56.862-101.007 94.543-54.18 73.456-95.675 154.077-132.958 237.013-8.391 18.678-2.252 28.672 18.353 29.060 34.235 0.66 68.469 0.576 102.704 0.031 13.933-0.22 23.151-8.192 28.504-21.339 18.5-45.517 41.18-88.823 69.601-128.987 7.574-10.696 15.305-21.36 26.315-28.913 12.152-8.339 21.412-5.584 27.143 7.982 3.666 8.622 5.248 17.84 6.044 27.080 2.724 31.647 3.048 63.284-1.666 94.805-2.933 19.726-14.027 32.464-33.69 36.194-10.015 1.896-8.548 5.605-3.677 11.324 8.454 9.889 16.374 16.007 32.202 16.007l118.512 0.021c18.678-3.666 22.868-12.047 25.404-30.861l0.105-131.701c-0.22-7.281 3.656-28.861 16.73-33.627 10.476-3.457 17.39 4.945 23.654 11.576 28.421 30.16 48.67 65.756 66.804 102.599 8.003 16.248 14.907 33.061 21.611 49.906 4.986 12.456 12.738 18.584 26.797 18.374l114.122-0.136c3.363 0 6.778-0.031 10.109-0.608 19.233-3.289 24.503-11.565 18.552-30.327-9.365-29.479-27.562-54.034-45.349-78.652-19.066-26.357-39.399-51.792-58.276-78.264-17.348-24.199-15.975-36.382 5.563-57.396z" />
<glyph unicode="&#xe90c;" glyph-name="dot" d="M512.205 960c282.682-0.117 511.795-229.302 511.795-512 0-282.77-229.23-512-512-512s-512 229.23-512 512v0c0 282.624 229.376 512 512.205 512z" />
<glyph unicode="&#xe90d;" glyph-name="tw" d="M512 960c-282.727 0-512-229.273-512-512s229.273-512 512-512 512 229.273 512 512-229.273 512-512 512zM745.773 560.797c0.227-5.039 0.336-10.102 0.336-15.188 0-155.289-118.203-334.359-334.367-334.367v0c-66.367 0-128.125 19.453-180.133 52.789 9.195-1.086 18.555-1.625 28.031-1.625 55.063 0 105.734 18.781 145.961 50.305-51.445 0.953-94.82 34.93-109.789 81.625 7.164-1.375 14.531-2.125 22.086-2.125 10.727 0 21.117 1.445 30.992 4.141-53.773 10.766-94.281 58.289-94.281 115.195 0 0.531 0 1.008 0.016 1.5 15.836-8.805 33.945-14.102 53.227-14.695-31.555 21.055-52.297 57.047-52.297 97.82 0 21.531 5.82 41.703 15.914 59.070 57.953-71.109 144.563-117.875 242.234-122.789-2.016 8.609-3.055 17.578-3.055 26.797 0 64.875 52.633 117.508 117.531 117.508 33.805 0 64.336-14.289 85.781-37.133 26.773 5.281 51.914 15.063 74.625 28.523-8.789-27.43-27.414-50.445-51.68-65 23.773 2.844 46.43 9.148 67.484 18.508-15.727-23.57-35.672-44.273-58.617-60.859z" />
<glyph unicode="&#xe90e;" glyph-name="arrow-bottom-fill" d="M25.542 615.731l405.903-473.554c38.134-44.489 105.112-49.641 149.601-11.507 4.125 3.536 7.972 7.383 11.508 11.507l405.903 473.554c38.133 44.489 32.981 111.468-11.508 149.601-19.229 16.482-43.72 25.542-69.047 25.542h-811.806c-58.596 0-106.096-47.501-106.096-106.097 0-25.326 9.060-49.817 25.542-69.047z" />
<glyph unicode="&#xe90f;" glyph-name="arrow-top-fill" d="M998.458 280.269l-405.903 473.554c-38.134 44.489-105.112 49.641-149.601 11.507-4.125-3.536-7.972-7.383-11.508-11.507l-405.903-473.554c-38.133-44.489-32.981-111.468 11.508-149.601 19.229-16.482 43.72-25.542 69.047-25.542h811.806c58.596 0 106.096 47.501 106.096 106.097 0 25.326-9.060 49.817-25.542 69.047z" />
<glyph unicode="&#xe910;" glyph-name="card" d="M917.334 789.334h-810.667c-58.794 0-106.666-47.872-106.666-106.668v-469.333c0-58.795 47.872-106.667 106.666-106.667h810.667c58.795 0 106.667 47.872 106.667 106.667v469.333c0 58.796-47.872 106.668-106.667 106.668zM981.334 213.332c0-35.285-28.715-64-64-64h-810.667c-35.286 0-64 28.715-64 64v469.333c0 35.286 28.714 64 64 64h810.667c35.285 0 64-28.714 64-64v-469.333zM1002.668 661.334h-981.332c-11.776 0-21.334-9.558-21.334-21.334v-128c0-11.776 9.558-21.333 21.334-21.333h981.332c11.776 0 21.333 9.557 21.333 21.333v128c0 11.776-9.557 21.334-21.333 21.334zM981.334 533.334h-938.666v85.334h938.666v-85.334zM405.335 362.666h-256c-11.776 0-21.334-9.557-21.334-21.333s9.558-21.333 21.334-21.333h256c11.776 0 21.332 9.557 21.332 21.333s-9.556 21.333-21.332 21.333zM405.335 277.332h-256c-11.776 0-21.334-9.557-21.334-21.333s9.558-21.333 21.334-21.333h256c11.776 0 21.332 9.557 21.332 21.333s-9.556 21.333-21.332 21.333zM831.958 405.332h-42.667c-35.285 0-64-28.715-64-64v-42.667c0-35.285 28.715-64 64-64h42.667c35.285 0 64 28.715 64 64v42.667c0 35.285-28.715 64-64 64zM853.292 298.666c0-11.776-9.557-21.333-21.333-21.333h-42.667c-11.776 0-21.333 9.557-21.333 21.333v42.667c0 11.776 9.557 21.333 21.333 21.333h42.667c11.776 0 21.333-9.557 21.333-21.333v-42.667z" />
<glyph unicode="&#xe911;" glyph-name="cash" d="M426.918 393.234c29.082 0 56.422 11.328 76.988 31.889 20.561 20.565 31.889 47.906 31.889 76.988s-11.328 56.424-31.889 76.989c-20.565 20.562-47.906 31.889-76.988 31.889s-56.424-11.326-76.988-31.889c-20.562-20.564-31.889-47.907-31.889-76.989s11.326-56.418 31.889-76.988c20.564-20.561 47.905-31.889 76.988-31.889zM378.217 550.813c13.426 13.426 31.065 20.14 48.702 20.14 17.634 0 35.273-6.714 48.7-20.14 26.854-26.852 26.854-70.547 0-97.402s-70.547-26.854-97.402 0c-26.856 26.854-26.856 70.549 0 97.402zM1021.227 243.495l-60.578 226.069 14.357 8.29c18.598 10.735 31.898 28.070 37.457 48.815 5.555 20.739 2.705 42.403-8.030 61l-150.993 261.521c-10.735 18.596-28.070 31.898-48.811 37.455-20.745 5.554-42.406 2.704-61.001-8.032l-63.77-36.817-63.718 63.715c-31.343 31.343-82.342 31.343-113.685 0l-177.352-177.351c-7.81-7.81-7.81-20.474 0-28.286 7.81-7.81 20.474-7.81 28.287 0l177.349 177.351c7.629 7.628 17.771 11.83 28.561 11.83 10.786 0 20.928-4.202 28.557-11.83l213.538-213.532c15.748-15.747 15.748-41.369 0-57.117l-478.954-478.955c-15.748-15.744-41.371-15.744-57.117 0l-213.534 213.534c-15.746 15.748-15.746 41.374 0 57.118l174.321 174.32c7.81 7.81 7.81 20.474 0 28.285s-20.474 7.81-28.284 0l-174.321-174.321c-31.343-31.343-31.341-82.342 0-113.685l152.239-152.239 35.921-134.059c9.612-35.878 42.177-59.593 77.669-59.593 6.868 0 13.844 0.887 20.787 2.748l654.26 175.309c20.74 5.555 38.076 18.859 48.815 37.453 10.735 18.598 13.585 40.265 8.030 61.005zM829.679 578.291c31.343 31.345 31.343 82.343 0 113.686l-120.533 120.536 54.485 31.459c19.29 11.134 44.036 4.502 55.172-14.782l150.989-261.522c5.393-9.342 6.827-20.227 4.036-30.647-2.795-10.419-9.476-19.132-18.82-24.525l-452.211-261.086 326.882 326.881zM978.551 202.493c-5.393-9.34-14.101-16.026-24.525-18.816l-654.26-175.309c-21.513-5.751-43.703 7.049-49.465 28.561l-17.99 67.136 4.726-4.727c15.67-15.667 36.256-23.505 56.843-23.505 20.585 0 41.171 7.838 56.843 23.505l42.789 42.79 531.275 306.731 57.801-215.714c2.795-10.423 1.361-21.303-4.036-30.652zM275.625 630.38c5.28 0 10.42 2.14 14.14 5.86s5.86 8.88 5.86 14.14c0 5.26-2.14 10.42-5.86 14.14s-8.88 5.86-14.14 5.86c-5.26 0-10.42-2.14-14.14-5.86s-5.86-8.88-5.86-14.14c0-5.28 2.14-10.42 5.86-14.14s8.88-5.86 14.14-5.86z" />
<glyph unicode="&#xe912;" glyph-name="print" d="M944.355 692.184h-108.603v197.55c0 18.85-15.287 34.134-34.136 34.134h-579.232c-18.85 0-34.134-15.282-34.134-34.134v-197.55h-108.606c-43.916 0-79.644-35.73-79.644-79.646v-343.404c0-43.915 35.728-79.645 79.644-79.645h108.612v-183.23c0-18.849 15.282-34.128 34.134-34.128h579.219c18.849 0 34.136 15.28 34.136 34.128v183.23h108.61c43.915 0 79.645 35.73 79.645 79.645v343.404c0 43.914-35.73 79.646-79.645 79.646zM256.516 855.599h510.965v-163.416h-510.965v163.416zM767.473 40.394h-510.95c0 6.671 0 271.007 0 279.258h510.957c-0.007-8.458-0.007-272.843-0.007-279.258zM955.736 269.131c0-6.273-5.105-11.377-11.381-11.377h-108.61v96.028c0 18.85-15.28 34.134-34.136 34.134h-579.219c-18.85 0-34.134-15.282-34.134-34.134v-96.028h-108.612c-6.273 0-11.378 5.104-11.378 11.377v343.404c0 6.274 5.104 11.378 11.378 11.378 26.188 0 839.14 0 864.711 0 6.276 0 11.381-5.104 11.381-11.378v-343.404zM801.595 560.022h-86.889c-18.85 0-34.134-15.282-34.134-34.134s15.282-34.134 34.134-34.134h86.889c18.849 0 34.128 15.282 34.128 34.134s-15.28 34.134-34.128 34.134zM659.959 160.326h-295.825c-18.85 0-34.134-15.28-34.134-34.128 0-18.856 15.282-34.136 34.134-34.136h295.823c18.85 0 34.134 15.28 34.134 34.136 0 18.849-15.282 34.128-34.132 34.128zM659.959 267.986h-295.825c-18.85 0-34.134-15.282-34.134-34.134s15.282-34.131 34.134-34.131h295.823c18.85 0 34.134 15.28 34.134 34.131 0 18.853-15.282 34.134-34.132 34.134z" />
<glyph unicode="&#xe918;" glyph-name="plus" d="M1024 496.752h-463.247v463.247h-97.506v-463.247h-463.247v-97.506h463.247v-463.247h97.506v463.247h463.247v97.506z" />
<glyph unicode="&#xe91d;" glyph-name="search" d="M703.253 291.558c65.207 70.888 105.181 165.877 105.181 270.203 0 0.020 0 0.041 0 0.062v-0.004c0 219.221-176.449 398.181-393.948 398.181s-393.997-178.96-393.997-398.181 176.499-398.181 393.997-398.181c0.135 0 0.295 0 0.455 0 88.908 0 170.851 29.809 236.385 79.979l-0.934-0.686 292.951-296.101c7.186-7.235 16.045-10.829 24.954-10.829 0.045 0 0.1 0 0.154 0 9.789 0 18.606 4.16 24.78 10.807l0.019 0.021c6.351 6.612 10.261 15.61 10.261 25.52s-3.91 18.908-10.273 25.532l0.012-0.012-289.998 293.689zM91.805 561.819c0 179.55 144.359 326.124 322.679 326.124 177.631 0 322.679-145.934 322.679-326.124s-144.408-326.124-322.679-326.124c-178.32 0-322.679 146.574-322.679 326.124z" />
<glyph unicode="&#xe921;" glyph-name="trash" d="M920.078 694.14h-13.242l-78.719-731.658c-1.356-11.327-8.9-20.606-19.108-24.44l-0.205-0.068c-3.248-1.251-7.006-1.975-10.933-1.975-0.066 0-0.131 0-0.197 0.001h-571.285c-0.071-0.001-0.155-0.001-0.239-0.001-3.91 0-7.65 0.725-11.093 2.047l0.212-0.071c-10.424 3.909-17.984 13.178-19.372 24.362l-0.015 0.146-78.719 731.658h-13.169c-0.175-0.004-0.382-0.006-0.589-0.006-16.428 0-29.779 13.175-30.063 29.535v118.178c0 16.314 13.681 29.556 30.653 29.556h214.207v59.112c0 16.241 13.681 29.483 30.58 29.483h326.506c16.827 0 30.58-13.242 30.58-29.483v-59.112h214.207c16.9 0 30.58-13.242 30.58-29.556v-118.151c-0.285-16.386-13.636-29.56-30.063-29.56-0.182 0-0.363 0.002-0.543 0.005h0.027zM253.971-4.961h516.133l6.072 56.844h-528.351l6.145-56.844zM241.535 110.995h541.007l62.77 583.147h-666.62l62.843-583.147zM644.71 900.959h-265.272v-29.556h265.272v29.556zM889.498 812.29h-754.922v-59.039h754.922v59.039zM674.925 182.105c-0.211-0.005-0.459-0.008-0.709-0.008-16.526 0-29.921 13.397-29.921 29.921 0 0.956 0.045 1.901 0.132 2.835l-0.009-0.119 42.432 393.811c1.927 15.038 14.648 26.543 30.055 26.543 1.242 0 2.467-0.075 3.67-0.22l-0.145 0.014c16.827-1.609 28.971-16.168 27.288-32.409l-42.359-393.884c-1.988-15.017-14.711-26.485-30.112-26.485-0.113 0-0.226 0.001-0.339 0.002h0.017zM512.001 182.178c-0.154-0.003-0.336-0.004-0.518-0.004-16.401 0-29.736 13.133-30.062 29.457v393.914c0 16.314 13.754 29.556 30.58 29.556 16.9 0 30.653-13.242 30.653-29.556v-393.884c-0.325-16.355-13.66-29.488-30.062-29.488-0.208 0-0.415 0.002-0.622 0.006h0.031zM352.369 182.251l-3.219-0.146c-0.096-0.001-0.208-0.002-0.321-0.002-15.401 0-28.124 11.467-30.095 26.331l-0.017 0.155-42.359 393.884c-0.084 0.839-0.132 1.814-0.132 2.801 0 15.575 11.989 28.35 27.241 29.601l0.107 0.007c1.063 0.132 2.293 0.207 3.542 0.207 15.436 0 28.189-11.492 30.167-26.389l0.017-0.155 42.359-393.811c0.072-0.779 0.113-1.684 0.113-2.6 0-15.652-11.99-28.505-27.286-29.874l-0.115-0.008z" />
<glyph unicode="&#xe938;" glyph-name="check" d="M1009.003 809.007c-19.994 19.996-52.41 19.996-72.408 0l-613.407-613.413-235.784 235.784c-19.994 19.996-52.41 19.994-72.408 0-19.996-19.994-19.996-52.41 0-72.406l271.988-271.984c19.988-19.994 52.428-19.98 72.408 0l649.611 649.611c19.996 19.994 19.994 52.412 0 72.408z" />
</font>
</defs>
</svg>
